<svg width="168" height="48" viewBox="0 0 168 48" fill="none" xmlns="http://www.w3.org/2000/svg">
<path d="M162.26 0H5.74C2.56989 0 0 2.54002 0 5.67329V42.3267C0 45.46 2.56989 48 5.74 48H162.26C165.43 48 168 45.46 168 42.3267V5.67329C168 2.54002 165.43 0 162.26 0Z" fill="black"/>
<path d="M55.5275 12.8235L54.8171 15.1655H53.2559L55.8866 6.95312H57.7992L60.4846 15.1577H58.8765L58.1349 12.8157L55.5275 12.8235ZM57.8694 11.6916L57.2215 9.66975C57.0654 9.17014 56.9327 8.60808 56.8078 8.10847C56.6907 8.57686 56.5658 9.15453 56.4174 9.66975L55.7851 11.6916H57.8694Z" fill="white"/>
<path d="M62.7302 9.21094L63.6904 12.2242C63.8621 12.7472 63.987 13.2234 64.0963 13.7074C64.2056 13.2234 64.3383 12.7629 64.4944 12.2242L65.4468 9.21094H67.0081L64.7442 15.1516H63.3157L61.1143 9.21094H62.7302Z" fill="white"/>
<path d="M73.0333 13.7238C73.0257 14.2021 73.0596 14.68 73.1347 15.1524H71.7842L71.6749 14.4888C71.4626 14.746 71.1934 14.9504 70.8886 15.0859C70.5838 15.2214 70.2517 15.2842 69.9185 15.2695C69.6778 15.2834 69.4367 15.2477 69.2103 15.1648C68.9839 15.0819 68.7768 14.9534 68.602 14.7874C68.4272 14.6213 68.2882 14.4212 68.1937 14.1993C68.0993 13.9774 68.0513 13.7386 68.0528 13.4974C68.0528 12.0142 69.3877 11.2492 71.5813 11.257V11.1633C71.5813 10.773 71.4173 10.1251 70.3713 10.1251C69.8214 10.1308 69.2828 10.2816 68.81 10.5622L68.4509 9.60204C69.1089 9.24408 69.8488 9.06381 70.5977 9.07901C72.4946 9.07901 73.0411 10.289 73.0411 11.5927L73.0333 13.7238ZM71.5735 12.2484C70.5118 12.2484 69.5048 12.4592 69.5048 13.3569C69.4927 13.472 69.5063 13.5883 69.5447 13.6974C69.583 13.8066 69.6452 13.9058 69.7266 13.988C69.808 14.0702 69.9067 14.1333 70.0155 14.1726C70.1243 14.212 70.2405 14.2267 70.3557 14.2156C70.6148 14.2291 70.8716 14.1611 71.09 14.021C71.3085 13.881 71.4775 13.6761 71.5735 13.435C71.5888 13.3262 71.5888 13.2159 71.5735 13.1071V12.2484Z" fill="white"/>
<path d="M75.9027 8.35499C75.7521 8.34137 75.6086 8.28428 75.4898 8.19065C75.371 8.09703 75.2819 7.9709 75.2335 7.82761C75.185 7.68431 75.1792 7.53003 75.2168 7.38351C75.2544 7.23699 75.3338 7.10454 75.4452 7.00228C75.5567 6.90002 75.6955 6.83235 75.8447 6.80749C75.9939 6.78263 76.1471 6.80166 76.2857 6.86226C76.4243 6.92286 76.5423 7.02242 76.6254 7.14884C76.7084 7.27525 76.753 7.42308 76.7536 7.57435C76.754 7.68305 76.7318 7.79065 76.6882 7.89025C76.6447 7.98985 76.5808 8.07926 76.5007 8.15275C76.4206 8.22624 76.326 8.28219 76.2231 8.31701C76.1201 8.35184 76.011 8.36477 75.9027 8.35499ZM75.1221 15.1466V9.20588H76.6209V15.1466H75.1221Z" fill="white"/>
<path d="M78.8105 6.48438H80.3094V15.1495H78.8105V6.48438Z" fill="white"/>
<path d="M87.084 13.7237C87.0769 14.2019 87.1108 14.6799 87.1855 15.1523H85.835L85.7257 14.4887H85.6867C85.4755 14.7453 85.2077 14.9494 84.9042 15.0848C84.6008 15.2203 84.27 15.2835 83.938 15.2694C83.6973 15.2832 83.4563 15.2476 83.2298 15.1647C83.0034 15.0818 82.7964 14.9533 82.6215 14.7873C82.4467 14.6212 82.3077 14.4211 82.2133 14.1992C82.1188 13.9773 82.0708 13.7385 82.0723 13.4973C82.0723 12.0141 83.3994 11.2491 85.593 11.2569V11.1632C85.593 10.7729 85.4369 10.125 84.383 10.125C83.8332 10.1307 83.2946 10.2815 82.8217 10.5621L82.5017 9.60192C83.16 9.24497 83.8997 9.06477 84.6484 9.0789C86.5532 9.0789 87.0996 10.2889 87.0996 11.5926L87.084 13.7237ZM85.6242 12.2483C84.5704 12.2483 83.5555 12.4591 83.5555 13.3568C83.5436 13.4711 83.5571 13.5867 83.595 13.6952C83.6329 13.8038 83.6944 13.9026 83.7749 13.9846C83.8555 14.0667 83.9531 14.1299 84.0609 14.1698C84.1688 14.2097 84.2841 14.2253 84.3986 14.2155C84.659 14.2307 84.9176 14.1634 85.1376 14.0233C85.3576 13.8831 85.5279 13.6773 85.6242 13.4349C85.6396 13.3261 85.6396 13.2157 85.6242 13.107V12.2483Z" fill="white"/>
<path d="M89.2012 6.48438H90.7V10.0285C90.9124 9.71173 91.2048 9.4568 91.5476 9.28954C91.8903 9.12228 92.2712 9.04864 92.6516 9.0761C94.1036 9.0761 95.134 10.2861 95.1262 12.0894C95.1262 14.2205 93.7679 15.2822 92.433 15.2822C92.0557 15.3013 91.6804 15.216 91.3485 15.0356C91.0165 14.8551 90.7408 14.5866 90.5517 14.2595L90.4814 15.1495H89.2012C89.2012 14.7435 89.248 14.0878 89.248 13.4867L89.2012 6.48438ZM90.7 12.7295C90.6881 12.8463 90.6881 12.964 90.7 13.0808C90.7718 13.3787 90.9417 13.6439 91.1824 13.8336C91.4231 14.0233 91.7206 14.1266 92.0271 14.1268C92.9639 14.1268 93.5415 13.3462 93.5415 12.183C93.5415 11.1292 93.0419 10.2783 92.0427 10.2783C91.7293 10.2865 91.4276 10.3994 91.1858 10.5988C90.9439 10.7983 90.7756 11.0729 90.7078 11.379C90.6783 11.5071 90.6626 11.6379 90.661 11.7693L90.7 12.7295Z" fill="white"/>
<path d="M96.8682 6.48438H98.367V15.1495H96.8682V6.48438Z" fill="white"/>
<path d="M101.592 12.5988C101.597 12.8254 101.651 13.0482 101.748 13.2528C101.845 13.4574 101.985 13.6392 102.157 13.7864C102.329 13.9337 102.531 14.043 102.748 14.1074C102.965 14.1718 103.194 14.1897 103.418 14.1601C103.979 14.1677 104.536 14.0778 105.065 13.8947L105.284 14.9173C104.626 15.1785 103.923 15.3059 103.215 15.292C102.809 15.3307 102.4 15.2802 102.015 15.1441C101.63 15.008 101.28 14.7896 100.989 14.5041C100.697 14.2187 100.472 13.873 100.328 13.4914C100.184 13.1097 100.125 12.7012 100.155 12.2944C100.155 10.655 101.154 9.10156 103.059 9.10156C104.964 9.10156 105.612 10.6628 105.612 11.9899C105.614 12.2016 105.598 12.4132 105.565 12.6222L101.592 12.5988ZM104.199 11.5528C104.224 11.3751 104.212 11.1941 104.162 11.0217C104.113 10.8492 104.027 10.6891 103.912 10.552C103.796 10.4149 103.652 10.3038 103.491 10.226C103.329 10.1483 103.153 10.1056 102.973 10.1008C102.602 10.1243 102.254 10.287 101.998 10.5561C101.742 10.8253 101.597 11.1812 101.592 11.5528H104.199Z" fill="white"/>
<path d="M113.01 15.2879C112.608 15.303 112.208 15.2335 111.834 15.0839C111.461 14.9343 111.123 14.7079 110.843 14.4194C110.562 14.131 110.345 13.7868 110.207 13.4093C110.068 13.0317 110.01 12.6292 110.036 12.2278C110.008 11.8152 110.068 11.4013 110.211 11.0134C110.355 10.6255 110.579 10.2724 110.869 9.97733C111.158 9.6823 111.507 9.45205 111.893 9.30173C112.278 9.15142 112.691 9.08446 113.104 9.10527C113.503 9.08802 113.902 9.15505 114.274 9.30201C114.646 9.44898 114.983 9.67257 115.263 9.95826C115.542 10.244 115.759 10.5853 115.898 10.9602C116.037 11.3351 116.096 11.7351 116.07 12.1342C116.097 12.5438 116.037 12.9544 115.895 13.3395C115.753 13.7246 115.532 14.0756 115.246 14.3698C114.959 14.6641 114.615 14.8951 114.234 15.0478C113.853 15.2006 113.444 15.2718 113.034 15.2567L113.01 15.2879ZM113.057 14.2028C113.908 14.2028 114.509 13.3754 114.509 12.1654C114.509 11.2442 114.095 10.1669 113.065 10.1669C112.034 10.1669 111.582 11.2052 111.582 12.1888C111.582 13.3363 112.152 14.2028 113.042 14.2028H113.057Z" fill="white"/>
<path d="M117.815 10.9835C117.815 10.2965 117.815 9.72664 117.769 9.21142H119.072L119.142 10.1013H119.189C119.39 9.78099 119.67 9.51826 120.002 9.33896C120.335 9.15967 120.709 9.06998 121.086 9.07871C122.125 9.07871 123.194 9.75006 123.194 11.6236V15.1521H121.687V11.7953C121.687 10.9444 121.375 10.2965 120.555 10.2965C120.293 10.3048 120.04 10.3941 119.83 10.552C119.621 10.7099 119.465 10.9288 119.384 11.1786C119.334 11.3322 119.31 11.4932 119.314 11.6548V15.1521H117.815V10.9835Z" fill="white"/>
<path d="M130.127 7.6875V9.20975H131.556V10.3105H130.127V12.9178C130.127 13.6516 130.322 14.0185 130.908 14.0185C131.105 14.0267 131.302 14.0057 131.493 13.956V15.088C131.143 15.2008 130.776 15.2536 130.408 15.2441C130.172 15.2566 129.935 15.22 129.713 15.1367C129.492 15.0534 129.29 14.9252 129.12 14.7601C128.753 14.2849 128.583 13.6868 128.644 13.0895V10.3105H127.785V9.20975H128.628V8.10124L130.127 7.6875Z" fill="white"/>
<path d="M133.188 6.48438H134.686V10.0129C134.883 9.72662 135.153 9.49767 135.467 9.34932C135.781 9.1708 136.136 9.07667 136.497 9.0761C137.512 9.0761 138.574 9.74745 138.574 11.6522V15.1495H137.067V11.8083C137.067 10.9574 136.747 10.2939 135.92 10.2939C135.661 10.296 135.41 10.3783 135.2 10.5293C134.99 10.6803 134.833 10.8926 134.749 11.137C134.704 11.2835 134.682 11.4364 134.686 11.5898V15.1495H133.188V6.48438Z" fill="white"/>
<path d="M141.754 12.5988C141.759 12.8261 141.813 13.0497 141.911 13.2549C142.009 13.4601 142.149 13.6423 142.322 13.7897C142.495 13.9371 142.697 14.0462 142.915 14.11C143.134 14.1739 143.363 14.1909 143.588 14.1601C144.146 14.1677 144.701 14.0779 145.228 13.8947L145.446 14.9173C144.788 15.1785 144.085 15.3059 143.377 15.292C142.971 15.3307 142.562 15.2802 142.177 15.1441C141.793 15.008 141.442 14.7896 141.151 14.5041C140.86 14.2187 140.634 13.873 140.49 13.4914C140.346 13.1097 140.287 12.7012 140.317 12.2944C140.317 10.655 141.317 9.10156 143.221 9.10156C145.126 9.10156 145.782 10.6628 145.782 11.9899C145.782 12.2019 145.764 12.4135 145.727 12.6222L141.754 12.5988ZM144.361 11.5528C144.386 11.3751 144.374 11.1941 144.324 11.0217C144.275 10.8492 144.189 10.6891 144.074 10.552C143.958 10.4149 143.815 10.3038 143.653 10.226C143.491 10.1483 143.315 10.1056 143.135 10.1008C142.765 10.1243 142.416 10.287 142.16 10.5561C141.904 10.8253 141.759 11.1812 141.754 11.5528H144.361Z" fill="white"/>
<path d="M36.8953 23.1139C36.9087 21.8827 37.2327 20.6749 37.8373 19.6023C38.4418 18.5297 39.3073 17.6271 40.3535 16.9781C39.6852 16.0249 38.8038 15.2407 37.7793 14.6878C36.7548 14.1349 35.6155 13.8285 34.4519 13.793C31.9694 13.5276 29.5651 15.2763 28.3004 15.2763C27.0358 15.2763 25.0608 13.8165 22.9687 13.8633C21.6125 13.9063 20.2905 14.3 19.1318 15.0059C17.973 15.7118 17.0169 16.706 16.3566 17.8914C13.4995 22.8407 15.6307 30.1084 18.3707 34.1131C19.7446 36.0725 21.3449 38.2583 23.4371 38.1802C25.5292 38.1022 26.302 36.8532 28.7454 36.8532C31.1888 36.8532 31.9226 38.1568 34.0538 38.11C36.1849 38.0632 37.6369 36.135 38.964 34.1599C39.951 32.7678 40.7075 31.2258 41.2044 29.5932C39.924 29.0564 38.8314 28.1522 38.0644 26.9948C37.2975 25.8375 36.8907 24.4789 36.8953 23.0905" fill="white"/>
<path d="M32.8448 11.16C34.0507 9.72339 34.6425 7.86965 34.4919 6C32.6608 6.19363 30.9694 7.06857 29.7534 8.45121C29.1584 9.12952 28.7031 9.91865 28.4137 10.7733C28.1244 11.628 28.0066 12.5314 28.0672 13.4317C28.9828 13.4444 29.8892 13.2477 30.7172 12.8567C31.5451 12.4657 32.2729 11.8907 32.8448 11.1756" fill="white"/>
<path d="M66.5095 37.8541H63.6523L62.091 32.9439H56.6266L55.1824 37.8541H52.3799L57.7741 21.125H61.0996L66.5095 37.8541ZM61.6227 30.8752L60.2097 26.5114C60.0536 26.0665 59.7725 25.0126 59.3588 23.3889H59.312C59.148 24.0992 58.8826 25.1531 58.5313 26.5114L57.1418 30.8752H61.6227Z" fill="white"/>
<path d="M80.3659 31.6604C80.4631 33.4382 79.867 35.1843 78.7031 36.5316C78.2322 37.0391 77.6588 37.4408 77.0208 37.7099C76.3829 37.9791 75.6951 38.1096 75.0029 38.0929C74.3324 38.1501 73.6589 38.0233 73.055 37.7261C72.4512 37.429 71.9398 36.9728 71.5759 36.4067H71.5291V42.7611H68.8437V29.7479C68.8437 28.4598 68.8437 27.1405 68.7422 25.7822H71.0841L71.2402 27.6948H71.2871C71.6931 27.0725 72.2388 26.5537 72.8808 26.1796C73.5228 25.8056 74.2433 25.5868 74.9849 25.5405C75.7265 25.4942 76.4686 25.6219 77.1521 25.9132C77.8356 26.2046 78.4416 26.6516 78.9217 27.2186C79.9181 28.4784 80.4254 30.056 80.3503 31.6604H80.3659ZM77.6181 31.7619C77.6658 30.7363 77.393 29.7213 76.8374 28.8579C76.5785 28.4785 76.2283 28.1702 75.8191 27.9615C75.4098 27.7528 74.9547 27.6504 74.4955 27.6635C73.8382 27.6623 73.2018 27.8947 72.7 28.3193C72.1644 28.7612 71.7954 29.3725 71.654 30.0523C71.5814 30.3066 71.5394 30.5687 71.5291 30.8329V32.847C71.4991 33.6606 71.7779 34.4554 72.3097 35.0718C72.5719 35.3676 72.8959 35.602 73.2588 35.7585C73.6217 35.915 74.0146 35.9897 74.4096 35.9774C74.8667 35.9931 75.3204 35.8942 75.7295 35.6897C76.1386 35.4852 76.4899 35.1815 76.7515 34.8064C77.3523 33.8968 77.6476 32.8195 77.5946 31.7307" fill="white"/>
<path d="M94.2106 31.6604C94.309 33.4397 93.7097 35.1872 92.5401 36.5316C92.0712 37.0397 91.4993 37.4419 90.8625 37.7111C90.2257 37.9804 89.5388 38.1105 88.8476 38.0929C88.1748 38.1476 87.4998 38.0173 86.8958 37.7159C86.2917 37.4146 85.7816 36.9538 85.4206 36.3833H85.3738V42.7377H82.6884V29.7479C82.6884 28.4598 82.6884 27.1405 82.5947 25.7822H84.9366L85.0928 27.6948H85.1396C85.5456 27.0725 86.0913 26.5537 86.7333 26.1796C87.3754 25.8056 88.0959 25.5868 88.8374 25.5405C89.579 25.4942 90.3211 25.6219 91.0046 25.9132C91.6881 26.2046 92.2941 26.6516 92.7743 27.2186C93.7734 28.4773 94.2836 30.055 94.2106 31.6604ZM91.4784 31.7619C91.5262 30.7363 91.2533 29.7213 90.6978 28.8579C90.4711 28.5395 90.1811 28.2713 89.8461 28.07C89.511 27.8687 89.138 27.7387 88.7504 27.6882C88.3628 27.6376 87.969 27.6676 87.5935 27.7762C87.218 27.8848 86.869 28.0697 86.5682 28.3193C86.0296 28.7599 85.6578 29.3714 85.5143 30.0523C85.4417 30.3066 85.3998 30.5687 85.3894 30.8329V32.847C85.3594 33.6606 85.6383 34.4554 86.1701 35.0718C86.4318 35.368 86.7558 35.6028 87.1188 35.7593C87.4818 35.9158 87.8749 35.9903 88.27 35.9774C88.727 35.9931 89.1808 35.8942 89.5899 35.6897C89.9989 35.4852 90.3503 35.1815 90.6119 34.8064C91.2126 33.8968 91.508 32.8195 91.455 31.7307" fill="white"/>
<path d="M109.761 33.1546C109.783 33.8083 109.66 34.4588 109.401 35.0594C109.142 35.66 108.753 36.1958 108.263 36.6284C106.982 37.6749 105.354 38.1991 103.704 38.096C102.19 38.1684 100.687 37.8082 99.3711 37.0578L99.9878 34.8173C101.162 35.5338 102.515 35.9045 103.891 35.8868C104.726 35.934 105.553 35.6944 106.233 35.2077C106.507 34.9888 106.726 34.7089 106.872 34.3904C107.018 34.0718 107.088 33.7235 107.076 33.3731C107.085 33.0556 107.028 32.7397 106.908 32.4454C106.788 32.1512 106.609 31.8849 106.381 31.6635C105.701 31.071 104.903 30.6293 104.039 30.3677C101.13 29.2748 99.6755 27.6745 99.6755 25.5667C99.6614 24.9217 99.7946 24.2818 100.065 23.6961C100.336 23.1103 100.736 22.594 101.237 22.1866C102.393 21.261 103.848 20.7916 105.327 20.8673C106.639 20.8154 107.944 21.0833 109.129 21.6479L108.458 23.8259C107.473 23.3011 106.373 23.0326 105.257 23.0453C104.46 22.9945 103.672 23.2422 103.048 23.74C102.834 23.9298 102.664 24.1632 102.548 24.4244C102.432 24.6857 102.374 24.9687 102.377 25.2545C102.372 25.5693 102.44 25.8809 102.576 26.1651C102.711 26.4494 102.91 26.6987 103.157 26.8938C103.894 27.4515 104.717 27.8864 105.593 28.1819C106.795 28.6062 107.883 29.3036 108.77 30.2194C109.46 31.0265 109.825 32.0619 109.793 33.1233" fill="white"/>
<path d="M118.625 27.793H115.674V33.6556C115.674 35.1466 116.19 35.8882 117.236 35.8882C117.637 35.898 118.039 35.856 118.43 35.7633L118.5 37.8008C117.828 38.0193 117.123 38.1197 116.416 38.0974C115.957 38.1244 115.497 38.0518 115.069 37.8848C114.64 37.7177 114.253 37.46 113.933 37.1294C113.247 36.1901 112.928 35.0324 113.036 33.8742V27.793H111.279V25.7789H113.036V23.5775L115.674 22.7969V25.7945H118.625V27.793Z" fill="white"/>
<path d="M131.957 31.7206C132.027 33.3846 131.47 35.0142 130.396 36.2873C129.837 36.8959 129.152 37.3753 128.389 37.6921C127.626 38.009 126.803 38.1556 125.977 38.1218C125.184 38.1582 124.393 38.0189 123.66 37.714C122.928 37.409 122.271 36.9458 121.738 36.3576C120.675 35.1279 120.117 33.5406 120.177 31.9157C120.11 30.2327 120.694 28.5885 121.809 27.3256C122.364 26.726 123.044 26.2552 123.8 25.9464C124.557 25.6375 125.372 25.4981 126.188 25.5379C126.985 25.5022 127.781 25.6417 128.519 25.9465C129.256 26.2513 129.918 26.714 130.458 27.3021C131.524 28.5214 132.083 30.1024 132.019 31.7206H131.957ZM129.24 31.8064C129.268 30.8036 129.02 29.8124 128.522 28.9415C128.293 28.4863 127.938 28.1066 127.499 27.8478C127.061 27.5889 126.557 27.4618 126.048 27.4817C125.544 27.4681 125.046 27.5963 124.611 27.8516C124.176 28.1069 123.822 28.4791 123.589 28.9259C123.088 29.8126 122.839 30.8197 122.87 31.8377C122.842 32.8405 123.091 33.8316 123.589 34.7026C123.822 35.1446 124.173 35.5134 124.603 35.7683C125.032 36.0232 125.524 36.1542 126.024 36.1468C126.522 36.1497 127.01 36.0139 127.435 35.7547C127.86 35.4955 128.204 35.123 128.428 34.6792C128.955 33.8088 129.225 32.8078 129.209 31.7908" fill="white"/>
<path d="M140.663 28.1544C140.385 28.0995 140.103 28.0734 139.82 28.0763C139.395 28.0585 138.973 28.1471 138.591 28.3338C138.21 28.5206 137.881 28.7997 137.634 29.1458C137.169 29.8503 136.937 30.6831 136.97 31.5267V37.8577H134.285V29.5907C134.285 28.2012 134.254 26.9366 134.191 25.7968H136.533L136.627 28.1387H136.705C136.958 27.3886 137.421 26.7273 138.04 26.234C138.6 25.8129 139.283 25.5855 139.984 25.5861C140.206 25.5844 140.428 25.6001 140.647 25.6329L140.663 28.1544Z" fill="white"/>
<path d="M152.658 31.2608C152.664 31.6687 152.633 32.0764 152.564 32.4786H144.524C144.506 32.9913 144.601 33.5016 144.802 33.9737C145.003 34.4457 145.305 34.868 145.687 35.2108C146.431 35.808 147.364 36.1183 148.318 36.0852C149.429 36.1005 150.533 35.9072 151.573 35.5153L151.994 37.381C150.712 37.9159 149.333 38.1816 147.943 38.1617C147.134 38.2057 146.326 38.0813 145.568 37.7964C144.81 37.5115 144.119 37.0724 143.54 36.5067C142.992 35.9128 142.568 35.2152 142.293 34.4551C142.018 33.695 141.898 32.8877 141.94 32.0805C141.871 30.4237 142.4 28.7974 143.431 27.4981C143.933 26.8683 144.576 26.3656 145.308 26.0306C146.041 25.6956 146.841 25.5378 147.646 25.5699C148.415 25.5257 149.182 25.6798 149.873 26.0174C150.565 26.3551 151.158 26.865 151.596 27.4981C152.334 28.6256 152.704 29.9534 152.658 31.2998V31.2608ZM150.105 30.6051C150.14 29.8813 149.958 29.1637 149.582 28.5442C149.361 28.1827 149.046 27.888 148.671 27.6914C148.296 27.4949 147.874 27.4038 147.451 27.4279C147.032 27.4205 146.618 27.5164 146.245 27.707C145.872 27.8976 145.552 28.1771 145.312 28.5208C144.858 29.1268 144.587 29.85 144.531 30.6051H150.105Z" fill="white"/>
</svg>
